<?xml version="1.0" encoding="UTF-8" standalone="no"?>
<!DOCTYPE svg PUBLIC "-//W3C//DTD SVG 1.1//EN" "http://www.w3.org/Graphics/SVG/1.1/DTD/svg11.dtd">
<svg width="100%" height="100%" viewBox="0 0 24 24" version="1.1" xmlns="http://www.w3.org/2000/svg" xmlns:xlink="http://www.w3.org/1999/xlink" xml:space="preserve" xmlns:serif="http://www.serif.com/" style="fill-rule:evenodd;clip-rule:evenodd;stroke-linejoin:round;stroke-miterlimit:2;">
    <rect id="Cloud-Drizzle" serif:id="Cloud Drizzle" x="0" y="0" width="24" height="24" style="fill:none;"/>
    <g id="Cloud-Drizzle1" serif:id="Cloud Drizzle">
        <path d="M8.446,20.343c0,-0.276 0.224,-0.5 0.5,-0.5c0.276,0 0.5,0.224 0.5,0.5l0,1.018c0,0.276 -0.224,0.5 -0.5,0.5c-0.276,0 -0.5,-0.224 -0.5,-0.5l0,-1.018Zm9.159,-3.556c0,-0.276 0.224,-0.5 0.5,-0.5c0.276,0 0.5,0.224 0.5,0.5l0,1.018c0,0.276 -0.224,0.5 -0.5,0.5c-0.276,0 -0.5,-0.224 -0.5,-0.5l0,-1.018Zm-6.105,0c-0,-0.276 0.224,-0.5 0.5,-0.5c0.276,0 0.5,0.224 0.5,0.5l0,1.018c-0,0.276 -0.224,0.5 -0.5,0.5c-0.276,0 -0.5,-0.224 -0.5,-0.5l0,-1.018Zm3.052,3.556c0,-0.276 0.224,-0.5 0.5,-0.5c0.276,0 0.5,0.224 0.5,0.5l0,1.018c0,0.276 -0.224,0.5 -0.5,0.5c-0.276,0 -0.5,-0.224 -0.5,-0.5l0,-1.018Zm-9.159,-3.556c0,-0.276 0.224,-0.5 0.5,-0.5c0.276,0 0.5,0.224 0.5,0.5l0,1.018c0,0.276 -0.224,0.5 -0.5,0.5c-0.276,0 -0.5,-0.224 -0.5,-0.5l0,-1.018Zm10.364,-10.282c0.15,-0.018 0.302,-0.028 0.459,-0.028c2.225,-0 4.014,1.878 3.867,4.135c-0.135,2.055 -1.925,3.616 -3.984,3.616l-5.989,-0c-3.251,-0 -6.042,-2.507 -6.194,-5.754c-0.163,-3.471 2.602,-6.335 6.037,-6.335c2.759,-0 5.081,1.845 5.804,4.366Zm-10.842,1.922c0.127,2.717 2.475,4.801 5.195,4.801l5.989,-0c1.536,-0 2.885,-1.149 2.986,-2.682c0.109,-1.675 -1.218,-3.069 -2.869,-3.069c-0.217,-0 -0.424,0.026 -0.625,0.071l-0.002,0.001c-0.329,0.073 -0.641,-0.126 -0.714,-0.455l-0,-0.002c-0.493,-2.261 -2.508,-3.953 -4.922,-3.953c-2.867,-0 -5.174,2.391 -5.038,5.288Z"/>
    </g>
</svg>
