<?xml version="1.0" encoding="UTF-8" standalone="no"?>
<!DOCTYPE svg PUBLIC "-//W3C//DTD SVG 1.1//EN" "http://www.w3.org/Graphics/SVG/1.1/DTD/svg11.dtd">
<svg width="100%" height="100%" viewBox="0 0 24 24" version="1.1" xmlns="http://www.w3.org/2000/svg" xmlns:xlink="http://www.w3.org/1999/xlink" xml:space="preserve" xmlns:serif="http://www.serif.com/" style="fill-rule:evenodd;clip-rule:evenodd;stroke-linejoin:round;stroke-miterlimit:2;">
    <rect id="Cloud-Moon" serif:id="Cloud Moon" x="0" y="0" width="24" height="24" style="fill:none;"/>
    <g id="Cloud-Moon1" serif:id="Cloud Moon">
        <path d="M18.051,14.945c0.442,0.675 0.679,1.497 0.622,2.376c-0.134,2.054 -1.925,3.616 -3.983,3.616l-5.987,-0c-3.251,-0 -6.04,-2.506 -6.193,-5.752c-0.162,-3.47 2.602,-6.333 6.036,-6.333c0.42,-0 0.83,0.042 1.225,0.124c-0.005,-2.664 1.652,-4.954 3.975,-5.871l0.003,-0.001c0.597,-0.232 1.146,0.382 0.914,0.945c-0.302,0.74 -0.438,1.555 -0.374,2.414c0.164,2.237 1.788,4.193 3.971,4.732c0.814,0.201 1.619,0.211 2.361,0.057c0.611,-0.136 1.083,0.537 0.778,1.045c-0.002,0.003 -0.004,0.006 -0.005,0.009c-0.772,1.23 -1.948,2.173 -3.343,2.639Zm-7.27,-5.667c1.721,0.685 3.051,2.14 3.567,3.939c0.149,-0.019 0.302,-0.028 0.459,-0.028c0.959,-0 1.837,0.349 2.514,0.926c1.127,-0.275 2.11,-0.913 2.825,-1.783c-0.687,0.063 -1.404,0.012 -2.126,-0.167c-2.597,-0.641 -4.533,-2.965 -4.729,-5.628c-0.057,-0.776 0.023,-1.521 0.223,-2.219c-1.715,0.945 -2.856,2.831 -2.733,4.96Zm-7.272,5.86c0.128,2.716 2.474,4.799 5.194,4.799l5.987,-0c1.535,-0 2.885,-1.149 2.985,-2.681c0.109,-1.674 -1.218,-3.067 -2.868,-3.067c-0.218,-0 -0.424,0.024 -0.625,0.07l-0.003,0.001c-0.33,0.073 -0.64,-0.124 -0.713,-0.454l-0.001,-0.002c-0.492,-2.261 -2.506,-3.952 -4.919,-3.952c-2.866,-0 -5.172,2.39 -5.037,5.286Z"/>
    </g>
</svg>
