<?xml version="1.0" encoding="UTF-8" standalone="no"?>
<!DOCTYPE svg PUBLIC "-//W3C//DTD SVG 1.1//EN" "http://www.w3.org/Graphics/SVG/1.1/DTD/svg11.dtd">
<svg width="100%" height="100%" viewBox="0 0 24 24" version="1.1" xmlns="http://www.w3.org/2000/svg" xmlns:xlink="http://www.w3.org/1999/xlink" xml:space="preserve" xmlns:serif="http://www.serif.com/" style="fill-rule:evenodd;clip-rule:evenodd;stroke-linejoin:round;stroke-miterlimit:2;">
    <rect id="Shopping-Cart" serif:id="Shopping Cart" x="0" y="0" width="24" height="24" style="fill:none;"/>
    <g id="Shopping-Cart1" serif:id="Shopping Cart">
        <path d="M17.437,19.934c0,0.552 -0.448,1 -1,1c-0.552,0 -1,-0.448 -1,-1c0,-0.552 0.448,-1 1,-1c0.552,0 1,0.448 1,1Zm-11.217,-4.266l-0.945,-10.9c-0.03,-0.391 -0.356,-0.693 -0.749,-0.693l-0.966,-0c-0.276,-0 -0.5,-0.224 -0.5,-0.5c0,-0.276 0.224,-0.5 0.5,-0.5l0.966,-0c0.916,-0 1.676,0.704 1.746,1.617l0.139,1.818l13.03,-0c0.885,-0 1.577,0.76 1.494,1.638l-0.668,7.52c-0.121,1.285 -1.199,2.267 -2.489,2.267l-9.069,0c-1.29,0 -2.367,-0.981 -2.489,-2.267Zm0.274,-8.158l0.722,8.066c0.073,0.77 0.719,1.359 1.493,1.359l9.069,0c0.774,0 1.42,-0.589 1.493,-1.359l0.668,-7.518c0.028,-0.294 -0.203,-0.548 -0.498,-0.548l-12.947,-0Zm4.454,12.424c-0,0.552 -0.448,1 -1,1c-0.552,0 -1,-0.448 -1,-1c-0,-0.552 0.448,-1 1,-1c0.552,0 1,0.448 1,1Z"/>
    </g>
</svg>
